<?xml version="1.0" standalone="no"?>
<!DOCTYPE svg PUBLIC "-//W3C//DTD SVG 20010904//EN"
 "http://www.w3.org/TR/2001/REC-SVG-20010904/DTD/svg10.dtd">
<svg version="1.0" xmlns="http://www.w3.org/2000/svg"
 width="512.000000pt" height="512.000000pt" viewBox="0 0 512.000000 512.000000"
 preserveAspectRatio="xMidYMid meet">

<g transform="translate(0.000000,512.000000) scale(0.100000,-0.100000)"
fill="#000000" stroke="none">
<path d="M361 5104 c-169 -45 -301 -180 -346 -351 -23 -86 -23 -3660 0 -3746
45 -173 178 -307 350 -352 50 -13 146 -15 593 -15 593 0 577 -2 629 66 53 70
37 167 -35 222 l-35 27 -548 5 c-533 5 -548 6 -575 26 -15 11 -37 33 -48 48
-20 26 -21 43 -24 297 l-3 269 885 2 c875 3 885 3 913 24 15 11 38 40 51 64
22 44 22 47 22 512 l0 468 480 0 c526 0 512 -2 563 60 58 68 38 183 -41 232
l-37 23 -482 3 -483 3 0 369 0 370 770 0 770 0 0 -43 c0 -63 16 -107 52 -144
58 -60 139 -67 206 -17 65 50 63 27 62 639 0 520 -1 557 -20 617 -50 163 -192
293 -358 327 -37 8 -525 11 -1655 10 -1366 0 -1610 -2 -1656 -15z m3286 -326
c17 -10 42 -32 55 -50 23 -33 23 -36 26 -350 l3 -318 -1706 0 -1705 0 0 293
c0 169 4 308 10 329 13 45 60 95 103 107 19 6 663 9 1607 8 1474 -2 1577 -3
1607 -19z m-1777 -1418 l0 -370 -775 0 -775 0 0 370 0 370 775 0 775 0 0 -370z
m-2 -1067 l2 -373 -775 0 -775 0 0 375 0 375 773 -2 772 -3 3 -372z"/>
<path d="M4200 3411 c-30 -10 -75 -28 -100 -40 -32 -16 -343 -321 -1098 -1074
-579 -579 -1059 -1063 -1067 -1077 -7 -14 -67 -258 -134 -542 -131 -554 -130
-552 -86 -616 20 -28 86 -62 120 -62 38 0 1042 238 1073 254 15 8 500 489
1078 1068 979 980 1054 1058 1082 1118 75 162 65 338 -27 476 -56 83 -403 423
-467 456 -109 58 -265 74 -374 39z m398 -494 c274 -273 275 -247 -36 -560
l-227 -227 -262 262 -263 263 213 213 c116 117 221 218 232 224 34 19 78 25
120 16 34 -8 67 -36 223 -191z m-753 -757 l260 -260 -680 -680 -680 -680 -339
-80 c-187 -44 -340 -79 -341 -78 -1 2 35 157 79 346 l81 342 675 675 c371 371
677 675 680 675 3 0 122 -117 265 -260z"/>
</g>
</svg>
